<svg width="814" height="326" viewBox="0 0 814 326" fill="none" xmlns="http://www.w3.org/2000/svg">
<path d="M229 188.5V148L283.5 173.5C292.7 214.7 258 234.667 239.5 239.5L297.5 298H224L183 250H97V298H42V204.5C91.6666 205.833 194.7 207.7 209.5 204.5C224.3 201.3 228.667 192.5 229 188.5Z" fill="#111827"/>
<path d="M306.5 297V204H414L395.5 229H336V239.5H409.5L392.5 261H336V274H414L395.5 297H306.5Z" fill="#111827"/>
<path d="M466.5 205H541.5L524.5 229H466.5C434.9 248.2 453.333 266.333 466.5 273H512V260.5H464L480 239H540V297.5L466.5 296C396.5 282 415.5 209.5 466.5 205Z" fill="#111827"/>
<path d="M608 213L549.5 298H582L626 236L652 273H612.5L595.5 298H702L645.5 213C629.5 193.8 613.833 205 608 213Z" fill="#111827"/>
<path d="M713 297V204H740.5V273.5H813.5L794.5 297H713Z" fill="#111827"/>
<path d="M308.517 325V307.545H320.278V310.588H312.207V314.747H319.673V317.79H312.207V321.957H320.312V325H308.517Z" fill="#111827"/>
<path d="M371.172 307.545V325H367.984L360.391 314.014H360.263V325H356.572V307.545H359.811L367.345 318.523H367.498V307.545H371.172Z" fill="#111827"/>
<path d="M406.916 310.588V307.545H421.251V310.588H415.907V325H412.26V310.588H406.916Z" fill="#111827"/>
<path d="M456.972 325V307.545H468.733V310.588H460.662V314.747H468.128V317.79H460.662V321.957H468.767V325H456.972Z" fill="#111827"/>
<path d="M505.027 325V307.545H511.914C513.232 307.545 514.357 307.781 515.289 308.253C516.226 308.719 516.939 309.381 517.428 310.239C517.922 311.091 518.169 312.094 518.169 313.247C518.169 314.406 517.919 315.403 517.419 316.239C516.919 317.068 516.195 317.705 515.246 318.148C514.303 318.591 513.161 318.812 511.82 318.812H507.209V315.847H511.223C511.928 315.847 512.513 315.75 512.979 315.557C513.445 315.364 513.792 315.074 514.019 314.688C514.252 314.301 514.368 313.821 514.368 313.247C514.368 312.668 514.252 312.179 514.019 311.781C513.792 311.384 513.442 311.082 512.971 310.878C512.505 310.668 511.917 310.562 511.206 310.562H508.718V325H505.027ZM514.453 317.057L518.792 325H514.718L510.473 317.057H514.453Z" fill="#111827"/>
<path d="M554.137 325V307.545H561.024C562.348 307.545 563.475 307.798 564.407 308.304C565.339 308.804 566.049 309.5 566.538 310.392C567.032 311.278 567.279 312.301 567.279 313.46C567.279 314.619 567.029 315.642 566.529 316.528C566.029 317.415 565.305 318.105 564.356 318.599C563.413 319.094 562.271 319.341 560.93 319.341H556.541V316.384H560.333C561.044 316.384 561.629 316.261 562.089 316.017C562.555 315.767 562.902 315.423 563.129 314.986C563.362 314.543 563.478 314.034 563.478 313.46C563.478 312.881 563.362 312.375 563.129 311.943C562.902 311.506 562.555 311.168 562.089 310.929C561.623 310.685 561.032 310.562 560.316 310.562H557.828V325H554.137Z" fill="#111827"/>
<path d="M603.036 325V307.545H609.923C611.241 307.545 612.366 307.781 613.298 308.253C614.235 308.719 614.948 309.381 615.437 310.239C615.931 311.091 616.178 312.094 616.178 313.247C616.178 314.406 615.928 315.403 615.428 316.239C614.928 317.068 614.204 317.705 613.255 318.148C612.312 318.591 611.17 318.812 609.829 318.812H605.218V315.847H609.232C609.937 315.847 610.522 315.75 610.988 315.557C611.454 315.364 611.801 315.074 612.028 314.688C612.261 314.301 612.377 313.821 612.377 313.247C612.377 312.668 612.261 312.179 612.028 311.781C611.801 311.384 611.451 311.082 610.98 310.878C610.514 310.668 609.926 310.562 609.215 310.562H606.727V325H603.036ZM612.463 317.057L616.801 325H612.727L608.482 317.057H612.463Z" fill="#111827"/>
<path d="M655.837 307.545V325H652.146V307.545H655.837Z" fill="#111827"/>
<path d="M701.702 312.565C701.634 311.878 701.341 311.344 700.824 310.963C700.307 310.582 699.605 310.392 698.719 310.392C698.116 310.392 697.608 310.477 697.193 310.648C696.778 310.813 696.46 311.043 696.239 311.338C696.023 311.634 695.915 311.969 695.915 312.344C695.903 312.656 695.969 312.929 696.111 313.162C696.259 313.395 696.46 313.597 696.716 313.767C696.972 313.932 697.267 314.077 697.602 314.202C697.938 314.321 698.295 314.423 698.676 314.509L700.244 314.884C701.006 315.054 701.705 315.281 702.341 315.565C702.977 315.849 703.528 316.199 703.994 316.614C704.46 317.028 704.821 317.517 705.077 318.08C705.338 318.642 705.472 319.287 705.477 320.014C705.472 321.082 705.199 322.009 704.659 322.793C704.125 323.571 703.352 324.176 702.341 324.608C701.335 325.034 700.122 325.247 698.702 325.247C697.293 325.247 696.065 325.031 695.02 324.599C693.98 324.168 693.168 323.528 692.582 322.682C692.003 321.83 691.699 320.776 691.67 319.52H695.241C695.281 320.105 695.449 320.594 695.744 320.986C696.045 321.372 696.446 321.665 696.946 321.864C697.452 322.057 698.023 322.153 698.659 322.153C699.284 322.153 699.827 322.062 700.287 321.881C700.753 321.699 701.114 321.446 701.369 321.122C701.625 320.798 701.753 320.426 701.753 320.006C701.753 319.614 701.636 319.284 701.403 319.017C701.176 318.75 700.841 318.523 700.398 318.335C699.96 318.148 699.423 317.977 698.787 317.824L696.886 317.347C695.415 316.989 694.253 316.429 693.401 315.668C692.548 314.906 692.125 313.881 692.131 312.591C692.125 311.534 692.406 310.611 692.974 309.821C693.548 309.031 694.335 308.415 695.335 307.972C696.335 307.528 697.472 307.307 698.744 307.307C700.04 307.307 701.17 307.528 702.136 307.972C703.108 308.415 703.864 309.031 704.403 309.821C704.943 310.611 705.222 311.526 705.239 312.565H701.702Z" fill="#111827"/>
<path d="M741.32 325V307.545H753.081V310.588H745.01V314.747H752.476V317.79H745.01V321.957H753.115V325H741.32Z" fill="#111827"/>
<path d="M798.844 312.565C798.775 311.878 798.483 311.344 797.966 310.963C797.449 310.582 796.747 310.392 795.861 310.392C795.258 310.392 794.75 310.477 794.335 310.648C793.92 310.813 793.602 311.043 793.38 311.338C793.165 311.634 793.057 311.969 793.057 312.344C793.045 312.656 793.111 312.929 793.253 313.162C793.4 313.395 793.602 313.597 793.858 313.767C794.113 313.932 794.409 314.077 794.744 314.202C795.079 314.321 795.437 314.423 795.818 314.509L797.386 314.884C798.148 315.054 798.846 315.281 799.483 315.565C800.119 315.849 800.67 316.199 801.136 316.614C801.602 317.028 801.963 317.517 802.219 318.08C802.48 318.642 802.613 319.287 802.619 320.014C802.613 321.082 802.341 322.009 801.801 322.793C801.267 323.571 800.494 324.176 799.483 324.608C798.477 325.034 797.264 325.247 795.844 325.247C794.434 325.247 793.207 325.031 792.162 324.599C791.122 324.168 790.309 323.528 789.724 322.682C789.145 321.83 788.841 320.776 788.812 319.52H792.383C792.423 320.105 792.591 320.594 792.886 320.986C793.187 321.372 793.588 321.665 794.088 321.864C794.594 322.057 795.165 322.153 795.801 322.153C796.426 322.153 796.969 322.062 797.429 321.881C797.895 321.699 798.255 321.446 798.511 321.122C798.767 320.798 798.895 320.426 798.895 320.006C798.895 319.614 798.778 319.284 798.545 319.017C798.318 318.75 797.983 318.523 797.54 318.335C797.102 318.148 796.565 317.977 795.929 317.824L794.028 317.347C792.557 316.989 791.395 316.429 790.542 315.668C789.69 314.906 789.267 313.881 789.273 312.591C789.267 311.534 789.548 310.611 790.116 309.821C790.69 309.031 791.477 308.415 792.477 307.972C793.477 307.528 794.613 307.307 795.886 307.307C797.182 307.307 798.312 307.528 799.278 307.972C800.25 308.415 801.006 309.031 801.545 309.821C802.085 310.611 802.363 311.526 802.38 312.565H798.844Z" fill="#111827"/>
<path d="M123 72H95V105.5L123 85.5V72Z" fill="#111827"/>
<path d="M155.806 56.9008L1.02953 173.662C-0.885141 175.106 0.900762 178.083 3.07616 177.073L156.165 106.003C156.695 105.757 157.306 105.755 157.837 105.997L313.729 177.12C315.913 178.117 317.679 175.124 315.75 173.694L158.202 56.8908C157.489 56.3626 156.514 56.3667 155.806 56.9008Z" fill="#111827"/>
<path d="M38.4216 145.637C34.8546 128.039 35.2323 109.87 39.5274 92.4358C43.8226 75.0016 51.9284 58.7361 63.2619 44.8095C74.5953 30.8829 88.8745 19.6413 105.072 11.8935C121.27 4.14563 138.984 0.0841834 156.939 0.00129481C174.894 -0.0815938 192.645 3.81614 208.913 11.4141C225.182 19.012 239.564 30.1213 251.026 43.9427C262.488 57.7641 270.743 73.954 275.199 91.3478C279.655 108.742 280.2 126.907 276.796 144.536L251.733 139.697C254.423 125.771 253.992 111.422 250.472 97.6824C246.952 83.9429 240.431 71.1543 231.377 60.2366C222.324 49.3189 210.963 40.5436 198.112 34.5419C185.261 28.5402 171.24 25.4613 157.057 25.5268C142.874 25.5923 128.882 28.8004 116.087 34.9205C103.292 41.0406 92.0126 49.9205 83.0602 60.9213C74.1078 71.9221 67.7049 84.7704 64.3121 98.5418C60.9193 112.313 60.621 126.665 63.4386 140.566L38.4216 145.637Z" fill="#111827"/>
</svg>
