<svg width="2289" height="299" viewBox="0 0 2289 299" fill="none" xmlns="http://www.w3.org/2000/svg">
<path d="M229 188.5V148L283.5 173.5C292.7 214.7 258 234.667 239.5 239.5L297.5 298H224L183 250H97V298H42V204.5C91.6666 205.833 194.7 207.7 209.5 204.5C224.3 201.3 228.667 192.5 229 188.5Z" fill="black"/>
<path d="M321 296V146H494.387L464.548 186.323H368.581V203.258H487.129L459.71 237.935H368.581V258.903H494.387L464.548 296H321Z" fill="black"/>
<path d="M577.416 146H699.038L671.47 184.919H577.416C526.173 216.054 556.065 245.459 577.416 256.27H651.2V236H573.362L599.308 201.135H696.606V296L577.416 293.568C463.903 270.865 494.714 153.297 577.416 146Z" fill="black"/>
<path d="M799.825 162.634L708.038 296H759.031L828.068 198.721L868.862 256.775H806.886L780.213 296H947.313L858.663 162.634C833.559 132.509 808.978 150.082 799.825 162.634Z" fill="black"/>
<path d="M956.313 296V146H1000.67V258.097H1118.41L1087.76 296H956.313Z" fill="black"/>
<path d="M1166.07 298V228.182H1213.11V240.352H1180.83V256.989H1210.69V269.159H1180.83V285.83H1213.25V298H1166.07Z" fill="black"/>
<path d="M1331.25 228.182V298H1318.5L1288.12 254.057H1287.61V298H1272.85V228.182H1285.8L1315.94 272.091H1316.55V228.182H1331.25Z" fill="black"/>
<path d="M1388.78 240.352V228.182H1446.12V240.352H1424.75V298H1410.16V240.352H1388.78Z" fill="black"/>
<path d="M1503.57 298V228.182H1550.61V240.352H1518.33V256.989H1548.19V269.159H1518.33V285.83H1550.75V298H1503.57Z" fill="black"/>
<path d="M1610.35 298V228.182H1637.89C1643.17 228.182 1647.67 229.125 1651.39 231.011C1655.14 232.875 1658 235.523 1659.95 238.955C1661.93 242.364 1662.92 246.375 1662.92 250.989C1662.92 255.625 1661.92 259.614 1659.92 262.955C1657.92 266.273 1655.02 268.818 1651.22 270.591C1647.45 272.364 1642.88 273.25 1637.52 273.25H1619.08V261.386H1635.13C1637.95 261.386 1640.29 261 1642.16 260.227C1644.02 259.455 1645.41 258.295 1646.32 256.75C1647.25 255.205 1647.71 253.284 1647.71 250.989C1647.71 248.67 1647.25 246.716 1646.32 245.125C1645.41 243.534 1644.01 242.33 1642.12 241.511C1640.26 240.67 1637.91 240.25 1635.07 240.25H1625.11V298H1610.35ZM1648.05 266.227L1665.41 298H1649.11L1632.13 266.227H1648.05Z" fill="black"/>
<path d="M1721.35 298V228.182H1748.89C1754.19 228.182 1758.7 229.193 1762.43 231.216C1766.16 233.216 1769 236 1770.95 239.568C1772.93 243.114 1773.92 247.205 1773.92 251.841C1773.92 256.477 1772.92 260.568 1770.92 264.114C1768.92 267.659 1766.02 270.42 1762.22 272.398C1758.45 274.375 1753.88 275.364 1748.52 275.364H1730.96V263.534H1746.13C1748.97 263.534 1751.32 263.045 1753.16 262.068C1755.02 261.068 1756.41 259.693 1757.32 257.943C1758.25 256.17 1758.71 254.136 1758.71 251.841C1758.71 249.523 1758.25 247.5 1757.32 245.773C1756.41 244.023 1755.02 242.67 1753.16 241.716C1751.29 240.739 1748.93 240.25 1746.07 240.25H1736.11V298H1721.35Z" fill="black"/>
<path d="M1831.51 298V228.182H1859.05C1864.32 228.182 1868.82 229.125 1872.55 231.011C1876.3 232.875 1879.15 235.523 1881.11 238.955C1883.09 242.364 1884.07 246.375 1884.07 250.989C1884.07 255.625 1883.07 259.614 1881.07 262.955C1879.07 266.273 1876.18 268.818 1872.38 270.591C1868.61 272.364 1864.04 273.25 1858.68 273.25H1840.23V261.386H1856.29C1859.11 261.386 1861.45 261 1863.31 260.227C1865.18 259.455 1866.56 258.295 1867.47 256.75C1868.4 255.205 1868.87 253.284 1868.87 250.989C1868.87 248.67 1868.4 246.716 1867.47 245.125C1866.56 243.534 1865.16 242.33 1863.28 241.511C1861.41 240.67 1859.06 240.25 1856.22 240.25H1846.27V298H1831.51ZM1869.21 266.227L1886.56 298H1870.27L1853.29 266.227H1869.21Z" fill="black"/>
<path d="M1957.27 228.182V298H1942.51V228.182H1957.27Z" fill="black"/>
<path d="M2055.29 248.261C2055.01 245.511 2053.84 243.375 2051.78 241.852C2049.71 240.33 2046.9 239.568 2043.36 239.568C2040.95 239.568 2038.91 239.909 2037.25 240.591C2035.59 241.25 2034.32 242.17 2033.43 243.352C2032.57 244.534 2032.14 245.875 2032.14 247.375C2032.09 248.625 2032.36 249.716 2032.92 250.648C2033.51 251.58 2034.32 252.386 2035.34 253.068C2036.37 253.727 2037.55 254.307 2038.89 254.807C2040.23 255.284 2041.66 255.693 2043.18 256.034L2049.46 257.534C2052.5 258.216 2055.3 259.125 2057.84 260.261C2060.39 261.398 2062.59 262.795 2064.46 264.455C2066.32 266.114 2067.76 268.068 2068.79 270.318C2069.83 272.568 2070.37 275.148 2070.39 278.057C2070.37 282.33 2069.28 286.034 2067.12 289.17C2064.98 292.284 2061.89 294.705 2057.84 296.432C2053.82 298.136 2048.97 298.989 2043.29 298.989C2037.65 298.989 2032.74 298.125 2028.56 296.398C2024.4 294.67 2021.15 292.114 2018.81 288.727C2016.49 285.318 2015.28 281.102 2015.16 276.08H2029.45C2029.61 278.42 2030.28 280.375 2031.46 281.943C2032.66 283.489 2034.26 284.659 2036.26 285.455C2038.29 286.227 2040.57 286.614 2043.12 286.614C2045.62 286.614 2047.79 286.25 2049.63 285.523C2051.49 284.795 2052.93 283.784 2053.96 282.489C2054.98 281.193 2055.49 279.705 2055.49 278.023C2055.49 276.455 2055.03 275.136 2054.09 274.068C2053.18 273 2051.84 272.091 2050.07 271.341C2048.32 270.591 2046.17 269.909 2043.63 269.295L2036.03 267.386C2030.14 265.955 2025.49 263.716 2022.08 260.67C2018.67 257.625 2016.98 253.523 2017 248.364C2016.98 244.136 2018.11 240.443 2020.38 237.284C2022.67 234.125 2025.82 231.659 2029.82 229.886C2033.82 228.114 2038.37 227.227 2043.46 227.227C2048.64 227.227 2053.16 228.114 2057.03 229.886C2060.91 231.659 2063.93 234.125 2066.09 237.284C2068.25 240.443 2069.37 244.102 2069.43 248.261H2055.29Z" fill="black"/>
<path d="M2128.32 298V228.182H2175.36V240.352H2143.08V256.989H2172.94V269.159H2143.08V285.83H2175.5V298H2128.32Z" fill="black"/>
<path d="M2272.97 248.261C2272.7 245.511 2271.53 243.375 2269.46 241.852C2267.39 240.33 2264.59 239.568 2261.04 239.568C2258.63 239.568 2256.6 239.909 2254.94 240.591C2253.28 241.25 2252.01 242.17 2251.12 243.352C2250.26 244.534 2249.83 245.875 2249.83 247.375C2249.78 248.625 2250.04 249.716 2250.61 250.648C2251.2 251.58 2252.01 252.386 2253.03 253.068C2254.05 253.727 2255.24 254.307 2256.58 254.807C2257.92 255.284 2259.35 255.693 2260.87 256.034L2267.14 257.534C2270.19 258.216 2272.99 259.125 2275.53 260.261C2278.08 261.398 2280.28 262.795 2282.14 264.455C2284.01 266.114 2285.45 268.068 2286.47 270.318C2287.52 272.568 2288.05 275.148 2288.08 278.057C2288.05 282.33 2286.96 286.034 2284.8 289.17C2282.67 292.284 2279.58 294.705 2275.53 296.432C2271.51 298.136 2266.66 298.989 2260.97 298.989C2255.34 298.989 2250.43 298.125 2246.25 296.398C2242.09 294.67 2238.84 292.114 2236.5 288.727C2234.18 285.318 2232.96 281.102 2232.85 276.08H2247.13C2247.29 278.42 2247.96 280.375 2249.14 281.943C2250.35 283.489 2251.95 284.659 2253.95 285.455C2255.97 286.227 2258.26 286.614 2260.8 286.614C2263.3 286.614 2265.47 286.25 2267.32 285.523C2269.18 284.795 2270.62 283.784 2271.64 282.489C2272.67 281.193 2273.18 279.705 2273.18 278.023C2273.18 276.455 2272.71 275.136 2271.78 274.068C2270.87 273 2269.53 272.091 2267.76 271.341C2266.01 270.591 2263.86 269.909 2261.32 269.295L2253.71 267.386C2247.83 265.955 2243.18 263.716 2239.77 260.67C2236.36 257.625 2234.67 253.523 2234.69 248.364C2234.67 244.136 2235.79 240.443 2238.07 237.284C2240.36 234.125 2243.51 231.659 2247.51 229.886C2251.51 228.114 2256.05 227.227 2261.14 227.227C2266.33 227.227 2270.85 228.114 2274.71 229.886C2278.6 231.659 2281.62 234.125 2283.78 237.284C2285.94 240.443 2287.05 244.102 2287.12 248.261H2272.97Z" fill="black"/>
<path d="M123 72H95V105.5L123 85.5V72Z" fill="black"/>
<path d="M155.806 56.9008L1.02953 173.662C-0.885141 175.106 0.900762 178.083 3.07616 177.073L156.165 106.003C156.695 105.757 157.306 105.755 157.837 105.997L313.729 177.12C315.913 178.117 317.679 175.124 315.75 173.694L158.202 56.8908C157.489 56.3626 156.514 56.3667 155.806 56.9008Z" fill="black"/>
<path d="M38.4216 145.637C34.8546 128.039 35.2323 109.87 39.5274 92.4358C43.8226 75.0016 51.9284 58.7361 63.2619 44.8095C74.5953 30.8829 88.8745 19.6413 105.072 11.8935C121.27 4.14563 138.984 0.0841834 156.939 0.00129481C174.894 -0.0815938 192.645 3.81614 208.913 11.4141C225.182 19.012 239.564 30.1213 251.026 43.9427C262.488 57.7641 270.743 73.954 275.199 91.3478C279.655 108.742 280.2 126.907 276.796 144.536L251.733 139.697C254.423 125.771 253.992 111.422 250.472 97.6824C246.952 83.9429 240.431 71.1543 231.377 60.2366C222.324 49.3189 210.963 40.5436 198.112 34.5419C185.261 28.5402 171.24 25.4613 157.057 25.5268C142.874 25.5923 128.882 28.8004 116.087 34.9205C103.292 41.0406 92.0126 49.9205 83.0602 60.9213C74.1078 71.9221 67.7049 84.7704 64.3121 98.5418C60.9193 112.313 60.621 126.665 63.4386 140.566L38.4216 145.637Z" fill="black"/>
</svg>
