<svg width="1113" height="379" viewBox="0 0 1113 379" fill="none" xmlns="http://www.w3.org/2000/svg">
<path d="M228.784 188.5V148L283.284 173.5C292.484 214.7 257.784 234.667 239.284 239.5L297.284 298H223.784L182.784 250H96.7839V298H41.7839V204.5C91.4506 205.833 194.484 207.7 209.284 204.5C224.084 201.3 228.451 192.5 228.784 188.5Z" fill="black"/>
<path d="M315.534 298V148H488.921L459.083 188.323H363.115V205.258H481.663L454.244 239.936H363.115V260.903H488.921L459.083 298H315.534Z" fill="black"/>
<path d="M571.951 148H693.572L666.005 186.919H571.951C520.707 218.054 550.599 247.459 571.951 258.27H645.734V238H567.897L593.842 203.135H691.14V298L571.951 295.568C458.437 272.865 489.248 155.297 571.951 148Z" fill="black"/>
<path d="M794.36 164.634L702.572 298H753.565L822.602 200.721L863.396 258.775H801.42L774.747 298H941.847L853.198 164.634C828.093 134.509 803.512 152.082 794.36 164.634Z" fill="black"/>
<path d="M950.847 298V148H995.202V260.097H1112.94L1082.3 298H950.847Z" fill="black"/>
<path d="M122.784 72H94.7839V105.5L122.784 85.5V72Z" fill="black"/>
<path d="M155.59 56.9008L0.813463 173.662C-1.10121 175.106 0.684698 178.083 2.86009 177.073L155.949 106.003C156.479 105.757 157.09 105.755 157.621 105.997L313.513 177.12C315.697 178.117 317.463 175.124 315.534 173.694L157.985 56.8908C157.273 56.3626 156.298 56.3667 155.59 56.9008Z" fill="black"/>
<path d="M38.2055 145.637C34.6385 128.039 35.0162 109.87 39.3114 92.4358C43.6065 75.0016 51.7124 58.7361 63.0458 44.8095C74.3792 30.8829 88.6585 19.6413 104.856 11.8935C121.054 4.14563 138.768 0.0841834 156.723 0.00129481C174.678 -0.0815938 192.429 3.81614 208.697 11.4141C224.966 19.012 239.348 30.1213 250.81 43.9427C262.271 57.7641 270.527 73.954 274.983 91.3478C279.439 108.742 279.984 126.907 276.58 144.536L251.517 139.697C254.206 125.771 253.776 111.422 250.256 97.6824C246.736 83.9429 240.215 71.1543 231.161 60.2366C222.108 49.3189 210.747 40.5436 197.896 34.5419C185.045 28.5402 171.024 25.4613 156.841 25.5268C142.658 25.5923 128.666 28.8004 115.871 34.9205C103.076 41.0406 91.7966 49.9205 82.8442 60.9213C73.8918 71.9221 67.4888 84.7704 64.0961 98.5418C60.7033 112.313 60.4049 126.665 63.2225 140.566L38.2055 145.637Z" fill="black"/>
<path d="M38 377.534V327.682H75.6533V336.372H49.8144V348.251H73.716V356.941H49.8144V368.844H75.7625V377.534H38Z" fill="black"/>
<path d="M170.203 327.682V377.534H159.998L135.687 346.157H135.278V377.534H123.463V327.682H133.832L157.952 359.034H158.443V327.682H170.203Z" fill="black"/>
<path d="M216.253 336.372V327.682H262.146V336.372H245.038V377.534H233.36V336.372H216.253Z" fill="black"/>
<path d="M308.121 377.534V327.682H345.775V336.372H319.936V348.251H343.837V356.941H319.936V368.844H345.884V377.534H308.121Z" fill="black"/>
<path d="M393.585 377.534V327.682H415.631C419.851 327.682 423.453 328.355 426.436 329.702C429.437 331.033 431.72 332.923 433.284 335.374C434.867 337.808 435.658 340.672 435.658 343.966C435.658 347.277 434.858 350.125 433.257 352.51C431.656 354.88 429.337 356.697 426.299 357.963C423.28 359.229 419.624 359.862 415.331 359.862H400.57V351.391H413.421C415.676 351.391 417.55 351.115 419.042 350.563C420.533 350.011 421.643 349.184 422.37 348.08C423.116 346.977 423.489 345.605 423.489 343.966C423.489 342.311 423.116 340.916 422.37 339.78C421.643 338.644 420.524 337.784 419.014 337.199C417.523 336.599 415.64 336.299 413.366 336.299H405.399V377.534H393.585ZM423.762 354.847L437.65 377.534H424.608L411.02 354.847H423.762Z" fill="black"/>
<path d="M482.425 377.534V327.682H504.471C508.709 327.682 512.32 328.404 515.303 329.848C518.286 331.276 520.56 333.264 522.124 335.812C523.707 338.343 524.498 341.264 524.498 344.575C524.498 347.885 523.698 350.807 522.097 353.338C520.496 355.87 518.177 357.841 515.139 359.253C512.12 360.665 508.464 361.371 504.171 361.371H490.119V352.924H502.261C504.535 352.924 506.408 352.575 507.882 351.878C509.373 351.164 510.483 350.182 511.21 348.932C511.956 347.666 512.329 346.214 512.329 344.575C512.329 342.92 511.956 341.475 511.21 340.242C510.483 338.993 509.373 338.027 507.882 337.345C506.39 336.648 504.498 336.299 502.206 336.299H494.239V377.534H482.425Z" fill="black"/>
<path d="M570.589 377.534V327.682H592.636C596.856 327.682 600.457 328.355 603.44 329.702C606.442 331.033 608.725 332.923 610.289 335.374C611.871 337.808 612.663 340.672 612.663 343.966C612.663 347.277 611.862 350.125 610.262 352.51C608.661 354.88 606.342 356.697 603.304 357.963C600.284 359.229 596.628 359.862 592.335 359.862H577.574V351.391H590.425C592.681 351.391 594.555 351.115 596.046 350.563C597.538 350.011 598.647 349.184 599.375 348.08C600.121 346.977 600.494 345.605 600.494 343.966C600.494 342.311 600.121 340.916 599.375 339.78C598.647 338.644 597.529 337.784 596.019 337.199C594.527 336.599 592.645 336.299 590.371 336.299H582.404V377.534H570.589ZM600.766 354.847L614.654 377.534H601.612L588.024 354.847H600.766Z" fill="black"/>
<path d="M671.243 327.682V377.534H659.429V327.682H671.243Z" fill="black"/>
<path d="M749.695 342.019C749.476 340.055 748.54 338.53 746.884 337.443C745.229 336.355 742.983 335.812 740.145 335.812C738.217 335.812 736.589 336.055 735.261 336.542C733.933 337.013 732.914 337.67 732.205 338.514C731.514 339.358 731.168 340.315 731.168 341.386C731.132 342.279 731.341 343.058 731.796 343.723C732.269 344.388 732.914 344.964 733.733 345.451C734.551 345.922 735.497 346.336 736.571 346.693C737.644 347.034 738.79 347.326 740.008 347.569L745.029 348.64C747.466 349.127 749.704 349.776 751.741 350.587C753.778 351.399 755.543 352.397 757.034 353.582C758.526 354.766 759.681 356.162 760.5 357.768C761.336 359.375 761.764 361.217 761.782 363.294C761.764 366.345 760.891 368.99 759.163 371.229C757.453 373.453 754.979 375.181 751.741 376.414C748.522 377.631 744.638 378.24 740.09 378.24C735.579 378.24 731.65 377.623 728.303 376.39C724.974 375.157 722.373 373.331 720.5 370.913C718.644 368.479 717.671 365.469 717.58 361.882H729.013C729.14 363.554 729.677 364.949 730.622 366.069C731.587 367.172 732.869 368.008 734.47 368.576C736.089 369.128 737.917 369.404 739.954 369.404C741.955 369.404 743.692 369.144 745.165 368.625C746.657 368.106 747.812 367.383 748.631 366.458C749.449 365.533 749.858 364.471 749.858 363.27C749.858 362.15 749.486 361.209 748.74 360.446C748.012 359.683 746.939 359.034 745.52 358.499C744.119 357.963 742.4 357.476 740.363 357.038L734.279 355.675C729.567 354.653 725.848 353.054 723.119 350.88C720.391 348.705 719.035 345.776 719.054 342.092C719.035 339.074 719.936 336.437 721.755 334.181C723.592 331.925 726.111 330.164 729.313 328.899C732.514 327.633 736.152 327 740.227 327C744.374 327 747.994 327.633 751.086 328.899C754.197 330.164 756.616 331.925 758.344 334.181C760.072 336.437 760.963 339.049 761.018 342.019H749.695Z" fill="black"/>
<path d="M808.146 377.534V327.682H845.799V336.372H819.96V348.251H843.862V356.941H819.96V368.844H845.908V377.534H808.146Z" fill="black"/>
<path d="M923.923 342.019C923.704 340.055 922.768 338.53 921.113 337.443C919.457 336.355 917.211 335.812 914.373 335.812C912.445 335.812 910.817 336.055 909.489 336.542C908.161 337.013 907.142 337.67 906.433 338.514C905.742 339.358 905.396 340.315 905.396 341.386C905.36 342.279 905.569 343.058 906.024 343.723C906.497 344.388 907.143 344.964 907.961 345.451C908.78 345.922 909.725 346.336 910.799 346.693C911.872 347.034 913.018 347.326 914.237 347.569L919.257 348.64C921.694 349.127 923.932 349.776 925.969 350.587C928.006 351.399 929.771 352.397 931.262 353.582C932.754 354.766 933.909 356.162 934.728 357.768C935.564 359.375 935.992 361.217 936.01 363.294C935.992 366.345 935.119 368.99 933.391 371.229C931.681 373.453 929.207 375.181 925.969 376.414C922.75 377.631 918.866 378.24 914.318 378.24C909.807 378.24 905.878 377.623 902.531 376.39C899.203 375.157 896.601 373.331 894.728 370.913C892.872 368.479 891.899 365.469 891.808 361.882H903.241C903.368 363.554 903.905 364.949 904.851 366.069C905.815 367.172 907.097 368.008 908.698 368.576C910.317 369.128 912.145 369.404 914.182 369.404C916.183 369.404 917.92 369.144 919.393 368.625C920.885 368.106 922.04 367.383 922.859 366.458C923.677 365.533 924.087 364.471 924.087 363.27C924.087 362.15 923.714 361.209 922.968 360.446C922.24 359.683 921.167 359.034 919.748 358.499C918.348 357.963 916.628 357.476 914.591 357.038L908.507 355.675C903.796 354.653 900.076 353.054 897.347 350.88C894.619 348.705 893.263 345.776 893.282 342.092C893.263 339.074 894.164 336.437 895.983 334.181C897.82 331.925 900.34 330.164 903.541 328.899C906.742 327.633 910.38 327 914.455 327C918.602 327 922.222 327.633 925.314 328.899C928.425 330.164 930.844 331.925 932.572 334.181C934.3 336.437 935.191 339.049 935.246 342.019H923.923Z" fill="black"/>
</svg>
