<svg width="318" height="299" viewBox="0 0 318 299" fill="none" xmlns="http://www.w3.org/2000/svg">
<path d="M229.562 189V148.5L284.062 174C293.262 215.2 258.562 235.167 240.062 240L298.062 298.5H224.562L183.562 250.5H97.5624V298.5H42.5624V205C92.2291 206.333 195.262 208.2 210.062 205C224.862 201.8 229.229 193 229.562 189Z" fill="black"/>
<path d="M123.562 72.5H95.5624V106L123.562 86V72.5Z" fill="black"/>
<path d="M156.368 57.4008L1.59197 174.162C-0.322703 175.606 1.4632 178.582 3.6386 177.573L156.728 106.503C157.257 106.257 157.868 106.255 158.4 106.497L314.292 177.62C316.475 178.617 318.241 175.624 316.313 174.194L158.764 57.3908C158.052 56.8626 157.076 56.8667 156.368 57.4008Z" fill="black"/>
<path d="M38.984 146.137C35.417 128.539 35.7947 110.37 40.0899 92.9357C44.385 75.5016 52.4909 59.2362 63.8243 45.3095C75.1578 31.3829 89.4369 20.1413 105.635 12.3934C121.833 4.64562 139.546 0.584183 157.502 0.501295C175.457 0.418406 193.207 4.31613 209.476 11.9141C225.744 19.512 240.127 30.6213 251.588 44.4427C263.05 58.2641 271.306 74.454 275.762 91.8478C280.218 109.242 280.763 127.407 277.359 145.036L252.296 140.197C254.985 126.271 254.554 111.922 251.034 98.1824C247.515 84.4429 240.993 71.6543 231.94 60.7366C222.886 49.819 211.525 41.0436 198.674 35.0419C185.824 29.0402 171.802 25.9613 157.619 26.0268C143.436 26.0923 129.444 29.3004 116.649 35.4205C103.854 41.5406 92.5751 50.4205 83.6227 61.4213C74.6703 72.4221 68.2673 85.2704 64.8746 99.0418C61.4818 112.813 61.1834 127.165 64.001 141.066L38.984 146.137Z" fill="black"/>
</svg>
